<?xml version="1.0" encoding="UTF-8" standalone="no"?>
<svg
   xmlns:dc="http://purl.org/dc/elements/1.1/"
   xmlns:cc="http://creativecommons.org/ns#"
   xmlns:rdf="http://www.w3.org/1999/02/22-rdf-syntax-ns#"
   xmlns:svg="http://www.w3.org/2000/svg"
   xmlns="http://www.w3.org/2000/svg"
   xmlns:sodipodi="http://sodipodi.sourceforge.net/DTD/sodipodi-0.dtd"
   xmlns:inkscape="http://www.inkscape.org/namespaces/inkscape"
   width="210mm"
   height="297mm"
   viewBox="0 0 210 297"
   version="1.1"
   id="svg8"
   inkscape:version="1.0.1 (3bc2e813f5, 2020-09-07)"
   sodipodi:docname="logo.svg">
  <defs
     id="defs2">
    <rect
       x="48.380952"
       y="73.327381"
       width="129.26786"
       height="60.47619"
       id="rect12" />
  </defs>
  <sodipodi:namedview
     id="base"
     pagecolor="#ffffff"
     bordercolor="#666666"
     borderopacity="1.0"
     inkscape:pageopacity="0.0"
     inkscape:pageshadow="2"
     inkscape:zoom="0.49497475"
     inkscape:cx="390.8423"
     inkscape:cy="539.17285"
     inkscape:document-units="mm"
     inkscape:current-layer="layer1"
     inkscape:document-rotation="0"
     showgrid="false"
     inkscape:window-width="1920"
     inkscape:window-height="1013"
     inkscape:window-x="-9"
     inkscape:window-y="-9"
     inkscape:window-maximized="1" />
  <metadata
     id="metadata5">
    <rdf:RDF>
      <cc:Work
         rdf:about="">
        <dc:format>image/svg+xml</dc:format>
        <dc:type
           rdf:resource="http://purl.org/dc/dcmitype/StillImage" />
        <dc:title></dc:title>
      </cc:Work>
    </rdf:RDF>
  </metadata>
  <g
     inkscape:label="Layer 1"
     inkscape:groupmode="layer"
     id="layer1">
    <text
       xml:space="preserve"
       id="text10"
       style="fill:black;fill-opacity:1;line-height:1.25;stroke:none;font-family:sans-serif;font-style:normal;font-weight:normal;font-size:10.58333333px;white-space:pre;shape-inside:url(#rect12);" />
    <path
       style="fill:#000000;fill-opacity:1;fill-rule:nonzero;stroke:none;stroke-width:0.264583"
       id="path22"
       d="m 27.703748,85.064877 c 7.992218,4.727908 15.30486,10.529437 21.770953,17.192003 1.191102,1.22729 2.304056,2.52808 3.456081,3.79212 2.336178,2.44947 4.070315,5.35165 6.029324,8.08253 0.507529,0.7075 1.349076,1.8491 1.802099,1.57935 3.669075,-2.18476 7.054246,-4.81443 10.58137,-7.22165 3.56785,-6.87394 8.321817,-13.024411 12.895458,-19.24232 1.508834,-2.019964 1.897401,-2.670262 3.570327,-4.444815 0.445339,-0.472395 1.980263,-1.65187 1.407501,-1.346213 -3.00932,1.605952 -5.81674,3.565922 -8.768895,5.274683 -0.212611,0.123063 -0.583747,-0.003 -0.706474,0.209836 -0.405929,0.703876 -0.5012,1.54586 -0.751798,2.31879 -3.314239,10.184679 -5.835803,20.659029 -6.915258,31.332989 -0.879851,8.70025 -0.634421,11.74839 -0.578231,20.38206 0.24661,9.37383 1.984618,18.56394 4.142846,27.65227 0,0 9.371139,-5.07391 9.371139,-5.07391 v 0 c -2.430076,-8.87313 -4.322575,-17.87654 -4.630475,-27.11385 -0.08565,-8.75464 -0.370176,-11.39493 0.621392,-20.2292 1.216827,-10.84117 3.999272,-21.469344 7.922046,-31.633238 0.271846,-0.874379 0.755941,-1.709415 0.815535,-2.623135 0.04909,-0.752639 0.211648,-2.454987 -0.500533,-2.206654 -7.405095,2.582119 -10.977102,6.076902 -14.949159,11.804991 -4.561724,6.33173 -9.230299,12.608336 -13.076145,19.415206 2.860902,-1.32257 5.674095,-2.75365 8.582702,-3.96771 0.200536,-0.0837 -0.161073,0.60703 -0.367313,0.53857 -0.444645,-0.14758 -0.6971,-0.63083 -0.996437,-0.99123 -2.184061,-2.62959 -3.943479,-5.61951 -6.418797,-8.0151 -3.941418,-4.189922 -7.960129,-8.238571 -12.369133,-11.947211 -3.669625,-3.086711 -5.250841,-4.147947 -9.039277,-6.882231 -1.222804,-0.882549 -2.448407,-1.76122 -3.672608,-2.64183 0,0 -9.22824,6.004899 -9.22824,6.004899 z" />
    <path
       style="fill:#000000;fill-opacity:1;fill-rule:nonzero;stroke:none;stroke-width:0.264583"
       id="path28"
       d="m 95.786857,133.82716 c 2.037429,-0.0139 4.064098,0.0983 6.047073,-0.43071 2.88258,-1.3616 8.37329,-3.36352 9.80456,-6.92526 0.28979,-1.16683 0.59662,-2.33121 0.77899,-3.52189 0.0795,-1.36202 -0.85649,-2.0779 -2.01258,-2.5295 -1.39558,-0.38044 -2.86711,-0.34123 -4.30274,-0.35444 -1.24412,-0.0773 -2.45831,0.0479 -3.67119,0.31025 -1.30447,0.37886 -2.582915,0.85432 -3.796215,1.46602 -3.279801,1.61518 -6.841273,3.07874 -9.394378,5.72814 -0.907555,0.83109 -1.456634,1.88303 -2.013481,2.95541 -0.711346,1.46617 -1.166006,3.02885 -1.61715,4.58871 -0.408342,1.73254 -0.896831,3.44819 -1.227465,5.1987 -0.198104,1.33353 -0.24008,2.6822 -0.260527,4.02799 -0.06926,1.22277 -0.05215,2.1499 0.550023,3.23727 0.861526,1.31821 1.959621,2.44478 3.025804,3.59444 1.305082,1.57644 3.021304,2.64457 4.837774,3.53005 1.628669,0.74017 3.377462,0.92142 5.140214,1.00517 2.845671,0.23609 5.565391,-0.51389 8.278861,-1.25164 5.39972,-1.56682 10.32148,-4.56895 14.66776,-8.10196 2.32659,-1.81065 4.0197,-4.22591 5.62954,-6.65907 1.3029,-2.00813 2.61757,-3.98348 3.42099,-6.24895 0,0 -7.15171,3.32713 -7.15171,3.32713 v 0 c -0.85875,2.17419 -2.17827,4.0989 -3.44059,6.05586 -1.62663,2.37718 -3.36119,4.68745 -5.69654,6.4254 -2.19162,1.6881 -7.52875,4.90223 2.79699,-1.18138 0.42117,-0.24814 -0.86535,0.45695 -1.31351,0.65214 -0.45404,0.19776 -0.92369,0.35786 -1.38977,0.52528 -0.44308,0.15917 -0.89155,0.3029 -1.33733,0.45435 -2.6426,0.72449 -5.28385,1.61036 -8.06649,1.3932 -1.68061,-0.0541 -3.36919,-0.13577 -4.957201,-0.75225 -1.761707,-0.77999 -3.437948,-1.7519 -4.680857,-3.26077 -1.004909,-1.11662 -2.052061,-2.19873 -2.871481,-3.46506 -0.485388,-0.90263 -0.387773,-1.86893 -0.365006,-2.87045 0.02387,-1.30284 0.06741,-2.61086 0.305457,-3.89552 0.342669,-1.719 0.780076,-3.42031 1.230476,-5.11342 0.471202,-1.52513 0.962393,-3.05029 1.721146,-4.46228 0.563354,-1.02369 1.247241,-1.95417 2.140905,-2.71878 0.04587,-0.0369 0.764178,-0.61555 0.793176,-0.63727 0.13892,-0.10404 0.578327,-0.38297 0.427014,-0.29795 -11.443218,6.42991 -7.900818,4.24332 -5.37704,3.18052 1.196211,-0.61693 2.397993,-1.19725 3.689861,-1.59971 1.159428,-0.3614 2.350402,-0.56348 3.568562,-0.49187 1.378588,2.7e-4 2.770428,-0.0267 4.137128,0.17425 0.89091,0.21547 1.63216,0.48269 1.44786,1.54805 -0.20617,1.11658 -0.44355,2.25108 -0.87882,3.30118 -0.32424,0.49798 -0.67693,0.9398 -1.11486,1.34659 -0.17235,0.1601 -0.74644,0.56668 -0.5393,0.45519 2.66112,-1.43239 8.573,-4.89547 5.30824,-2.98585 -0.28514,0.12091 -0.55884,0.27346 -0.8554,0.36275 -1.61278,0.48554 -3.35132,0.19068 -5.00132,0.25083 0,0 -6.415453,4.66111 -6.415453,4.66111 z" />
    <path
       style="fill:#000000;fill-opacity:1;fill-rule:nonzero;stroke:none;stroke-width:0.264583"
       id="path30"
       d="m 137.50721,124.53793 c 1.20392,-2.52525 1.98723,-5.2724 2.19838,-8.06252 -0.0259,-0.32677 0.002,-0.66252 -0.0779,-0.98031 -0.52114,-2.06054 -2.57999,-2.56428 -4.37345,-2.89363 -2.01011,-0.0789 -3.93328,0.41107 -5.69368,1.39837 -4.05516,2.27431 -7.83523,4.05635 -11.15161,7.11175 -0.72308,0.66618 -1.3663,1.41415 -2.04945,2.12122 -1.59528,2.21062 -4.17021,5.07035 -3.82266,8.07073 0.17561,1.51603 0.99133,2.67743 1.70365,3.96725 0.48413,0.6217 0.9336,1.27201 1.45237,1.86512 1.13807,1.30115 2.48681,2.50082 3.7788,3.64064 2.30124,2.03021 4.66989,3.97304 6.95906,6.01797 2.73724,2.80771 5.9155,5.84141 6.83754,9.83135 0.50837,2.19984 0.16555,2.94713 -0.19949,5.09879 -0.87217,1.99907 -0.93598,2.70834 -2.55056,4.23058 -0.55243,0.52083 -2.50067,1.72277 -1.8652,1.30728 7.25506,-4.74353 5.51985,-2.64651 2.39121,-2.93469 -0.76045,-0.07 -1.48726,-0.34755 -2.23089,-0.52132 -2.78583,-1.35761 -1.47713,-0.58897 -3.93856,-2.2846 0,0 -6.49881,4.14376 -6.49881,4.14376 v 0 c 2.57278,1.80026 1.21092,0.96085 4.09799,2.49796 0.99131,0.29766 3.48501,1.25797 4.63434,0.79211 3.72329,-1.50916 9.70348,-3.8909 11.89408,-8.10771 0.41054,-0.79027 0.62623,-1.66737 0.93935,-2.50105 0.28686,-2.33187 0.59606,-3.08175 -0.007,-5.43411 -1.04684,-4.08441 -4.25109,-7.18777 -7.07423,-10.10296 -0.81074,-0.74278 -1.60807,-1.50049 -2.43224,-2.22836 -3.29065,-2.90617 -6.91828,-5.54126 -9.49212,-9.15329 -0.64081,-1.202 -1.33892,-2.16885 -1.43143,-3.57507 -0.18429,-2.80116 2.35029,-5.5124 3.88826,-7.53678 0.69281,-0.67888 1.34632,-1.40033 2.07843,-2.03664 0.74779,-0.64995 3.3108,-2.07069 2.3535,-1.81538 -1.57475,0.41998 -2.88685,1.51567 -4.29655,2.33358 -0.63837,0.37039 1.29738,-0.71059 1.98056,-0.98982 0.57294,-0.23418 1.1692,-0.41829 1.77501,-0.54516 0.51313,-0.10746 1.04347,-0.1029 1.5652,-0.15435 1.85526,0.21962 3.86661,0.61489 3.82822,2.87636 -0.23884,2.74204 -1.07283,5.41334 -2.40367,7.82554 0,0 7.23338,-3.27261 7.23338,-3.27261 z" />
    <path
       style="fill:#000000;fill-opacity:1;fill-rule:nonzero;stroke:none;stroke-width:0.264583"
       id="path32"
       d="m 91.130608,169.06404 c 2.934478,-0.27713 5.839923,-0.7657 8.746932,-1.24063 0,0 6.12838,-4.6061 6.12838,-4.6061 v 0 c -2.82671,0.46254 -5.64856,0.97781 -8.513297,1.14314 0,0 -6.362015,4.70359 -6.362015,4.70359 z" />
    <path
       style="fill:#000000;fill-opacity:1;fill-rule:nonzero;stroke:none;stroke-width:0.264583"
       id="path40"
       d="m 77.165054,178.89292 c 1.456441,1.30407 3.121636,2.07234 5.087672,1.7995 3.319418,-1.05212 10.198889,-3.54613 6.681436,-6.82 -1.475039,-1.0455 -3.329128,-1.19657 -5.08268,-1.26601 -3.679928,0.12315 -8.840999,1.71015 -9.739852,5.55276 -0.02981,0.20276 -0.104976,0.40394 -0.08942,0.60829 0.108892,1.43003 1.140364,2.86342 1.896477,4.02381 0.885659,1.39717 2.024034,2.47324 3.569663,3.06344 1.410396,0.39269 2.831524,0.43192 4.246872,0.0826 3.25201,-1.22455 1.11864,-0.37966 8.004427,-4.55618 0.255209,-0.15479 0.8486,-0.77479 1.020222,-1.01919 0.306443,-0.43641 0.437875,-0.8385 0.635768,-1.32599 0,0 -7.212656,3.27923 -7.212656,3.27923 v 0 c -0.344701,0.61354 -0.690483,1.08689 -1.242843,1.53478 -0.184975,0.15 -0.784254,0.53809 -0.575786,0.42296 5.317694,-2.93679 8.295926,-4.89671 5.653651,-3.172 -1.496658,0.48492 -2.391426,0.60045 -3.974992,0.29445 -1.469202,-0.36575 -2.504164,-1.31126 -3.309614,-2.5846 -0.740841,-1.15431 -1.86495,-2.56332 -1.41501,-3.99799 1.305737,-2.15071 7.304344,-4.45771 -5.855251,2.96408 -0.167452,0.0944 0.320636,-0.21773 0.499335,-0.28862 0.537874,-0.21337 0.926267,-0.19763 1.504151,-0.24577 1.589858,-0.056 3.308316,0.053 4.729946,0.82898 0.140512,0.10724 0.463931,0.29543 0.531688,0.51187 0.125381,0.40049 -0.209267,0.59626 -0.124381,0.55007 5.974157,-3.25094 8.418275,-5.25049 5.93054,-3.25928 -0.21881,0.0906 -0.427008,0.21303 -0.656426,0.2718 -1.403326,0.35943 -2.883066,-0.47647 -3.914052,-1.34786 0,0 -6.798889,4.09491 -6.798889,4.09491 z" />
  </g>
</svg>
